<?xml version="1.0" encoding="UTF-8"?>
<svg version="1.1" xmlns="http://www.w3.org/2000/svg" width="512" height="512">
<path d="M0 0 C1.13695312 0.30164063 2.27390625 0.60328125 3.4453125 0.9140625 C7.87874709 2.22806841 11.19839637 3.2916061 14.6875 6.375 C16 9 16 9 16.25 11.9296875 C16.7254716 15.16132527 16.7254716 15.16132527 19.36328125 17.046875 C20.33652344 17.60890625 21.30976563 18.1709375 22.3125 18.75 C23.27800781 19.32234375 24.24351562 19.8946875 25.23828125 20.484375 C26.14964844 20.98453125 27.06101563 21.4846875 28 22 C29.06154297 22.61488281 29.06154297 22.61488281 30.14453125 23.2421875 C32.20113788 24.2771238 32.20113788 24.2771238 35.375 23.375 C39.05924005 22.99387172 40.51091965 23.19621033 43.41015625 25.46484375 C50.83190291 32.63129691 60.16169981 44.48802991 62 55 C62.62261719 54.94199219 63.24523437 54.88398438 63.88671875 54.82421875 C85.58363456 53.76509455 108.55909138 63.19709779 125 77 C126.27037109 78.06347656 126.27037109 78.06347656 127.56640625 79.1484375 C132.80738121 83.70928594 137.51795247 88.6085482 142.08984375 93.8359375 C143.67344762 95.63004087 145.29965116 97.3191954 147 99 C146.99111755 98.25212723 146.98223511 97.50425446 146.9730835 96.73371887 C146.89239722 89.62992536 146.83176436 82.52629485 146.79275131 75.42216969 C146.77201879 71.77123522 146.74397009 68.12068444 146.69824219 64.4699707 C146.6542639 60.93617255 146.63075563 57.40273962 146.62049103 53.86868858 C146.60967819 51.88758149 146.57853867 49.90661805 146.54681396 47.92573547 C146.5433827 33.83941288 150.32569314 21.60251676 159.80859375 10.97265625 C168.77448557 2.45412701 180.15338771 -1.92914613 192.4140625 -2.02734375 C206.53867482 -1.42727852 218.07719674 3.40434641 227.8125 13.8125 C236.63089248 24.56511536 238.29328104 35.6251041 238.06043816 49.10294533 C238.00323704 52.84772102 238.00448829 56.59274619 237.99414062 60.33789062 C237.97665241 65.07836479 237.94269332 69.81718029 237.8527832 74.55688477 C237.78118443 78.41188099 237.7642351 82.26390453 237.78204536 86.11948204 C237.77895053 87.57589001 237.75641184 89.03240746 237.71290398 90.48816872 C237.5339753 96.72545455 237.50505141 101.9919131 241.37722778 107.19320679 C243.23448008 109.12970438 245.14444112 110.78756386 247.20948792 112.52201843 C257.3204355 121.50056466 263.04035798 136.83349933 265 150 C265.246785 154.23368724 265.23513462 158.44801883 265.1875 162.6875 C265.18685547 163.78900391 265.18621094 164.89050781 265.18554688 166.02539062 C265.1577105 171.15037583 264.93616097 175.94846606 264 181 C265.10794922 181.41958984 265.10794922 181.41958984 266.23828125 181.84765625 C284.82784183 189.19372149 300.17453796 201.73877924 308.45703125 220.2578125 C316.05970384 239.14399051 317.16140728 260.87976073 309.21875 279.86767578 C301.04137014 298.45133939 285.72542673 312.32393103 267 320 C256.48148932 323.30605875 246.79590205 324.58579411 235.75292969 324.51757812 C234.30879518 324.52301856 232.86466624 324.53015183 231.42054749 324.53881836 C227.55550441 324.55680736 223.6908958 324.55009268 219.82584667 324.53730202 C215.76118616 324.5270692 211.69655917 324.53659371 207.63189697 324.54284668 C200.82370403 324.55008356 194.01568584 324.54062985 187.20751953 324.52148438 C179.34094475 324.49961785 171.47478315 324.50685323 163.60821795 324.52879 C156.82993367 324.54693234 150.05177373 324.54951123 143.27347302 324.53903532 C139.23480518 324.5328074 135.19633196 324.53194748 131.1576767 324.54518127 C127.3718361 324.55672599 123.58653145 324.54874023 119.80074883 324.52560425 C118.41240008 324.52031418 117.02400624 324.52183611 115.63567543 324.53065491 C113.74181348 324.54157757 111.84785294 324.52545416 109.95404053 324.50793457 C108.36470011 324.50567242 108.36470011 324.50567242 106.7432518 324.50336456 C103.3005192 323.87165092 102.08848012 322.76572621 100 320 C100 319.01 100 318.02 100 317 C96.89420506 317.02279401 93.79209516 317.10007819 90.6875 317.1875 C89.36588867 317.19620117 89.36588867 317.19620117 88.01757812 317.20507812 C85.57841044 317.28854774 83.36962293 317.4108862 81 318 C78.93752993 320.3506547 78.93752993 320.3506547 78 323 C75.44346484 324.27826758 73.63663393 324.13163219 70.77326965 324.14044189 C69.11041679 324.14900711 69.11041679 324.14900711 67.41397095 324.15774536 C65.58060684 324.15942215 65.58060684 324.15942215 63.71020508 324.16113281 C61.7854409 324.16858017 61.7854409 324.16858017 59.8217926 324.17617798 C56.29209135 324.18931889 52.76240914 324.19575208 49.23268723 324.20018864 C47.02243371 324.20312115 44.81218535 324.20722665 42.60193443 324.21169281 C35.67302341 324.22538209 28.74412424 324.23503753 21.81520063 324.2388947 C13.84451415 324.24335678 5.87400076 324.26081186 -2.09663314 324.2898953 C-8.27095798 324.31163223 -14.44523462 324.3216056 -20.61959726 324.32293582 C-24.29944118 324.32397679 -27.97912275 324.32972957 -31.65892601 324.34775543 C-35.78207938 324.3675564 -39.90488017 324.36289985 -44.02807617 324.35644531 C-45.22400391 324.3656601 -46.41993164 324.37487488 -47.65209961 324.3843689 C-72.21891275 324.26490226 -93.80808414 314.77327819 -111.3125 297.7578125 C-124.06721341 284.66940019 -133.25059653 268.24604118 -136 250 C-136.16435547 248.93458984 -136.16435547 248.93458984 -136.33203125 247.84765625 C-139.50073326 223.80777035 -133.33152696 200.39390713 -119 181 C-112.48190563 172.89459767 -105.0805813 165.19117148 -96 160 C-97.56568173 156.47309589 -99.71775773 153.75276213 -102.125 150.75 C-114.91927589 134.17340816 -121.43087256 114.11062637 -121.3125 93.25 C-121.30686035 92.19941406 -121.3012207 91.14882812 -121.29541016 90.06640625 C-120.89431867 64.23770324 -110.42165834 41.82191513 -92.44140625 23.375 C-67.89436573 0.00365228 -32.64812428 -8.82177954 0 0 Z " fill="#010101" transform="translate(198,134)"/>
<path d="M0 0 C8.11036445 6.51705957 14.88939237 13.30273262 21.12109375 21.62890625 C24.97471706 25.95100925 28.50775922 27.03118895 34.11328125 27.86328125 C34.34563641 38.64234783 34.52299131 49.42081273 34.63140297 60.2018795 C34.68345393 65.2088951 34.75397233 70.21418971 34.86767578 75.22021484 C34.97684837 80.05738683 35.03622828 84.89291081 35.06205368 89.73122025 C35.08044079 91.57091837 35.11634984 93.41053263 35.17058182 95.24952316 C35.57856681 109.66598719 35.57856681 109.66598719 31.91017151 115.16699219 C29.43268834 117.64378891 26.89398689 119.74246663 24.11328125 121.86328125 C14.29404772 133.31971 9.93556824 148.74906684 9.92578125 163.48828125 C9.91353516 164.43574219 9.90128906 165.38320313 9.88867188 166.359375 C9.84704696 186.64458361 18.21270028 203.45722461 32.11328125 217.86328125 C33.44509025 219.19813717 34.77820203 220.53169609 36.11328125 221.86328125 C35.55617966 221.86914749 34.99907806 221.87501373 34.4250946 221.88105774 C28.63372664 221.94492539 22.84291781 222.02932721 17.05200195 222.12573242 C14.8899675 222.15901447 12.72784548 222.1870361 10.56567383 222.2097168 C7.46006907 222.24320233 4.35526927 222.29551525 1.25 222.3515625 C-0.20325432 222.36114738 -0.20325432 222.36114738 -1.68586731 222.3709259 C-2.58657455 222.39072006 -3.4872818 222.41051422 -4.4152832 222.4309082 C-5.6044207 222.44756279 -5.6044207 222.44756279 -6.81758118 222.46455383 C-9.44370283 222.97061332 -10.29988634 223.73233809 -11.88671875 225.86328125 C-12.21671875 227.18328125 -12.54671875 228.50328125 -12.88671875 229.86328125 C-19.48671875 229.86328125 -26.08671875 229.86328125 -32.88671875 229.86328125 C-33.87671875 227.38828125 -33.87671875 227.38828125 -34.88671875 224.86328125 C-37.46397948 222.28602052 -38.4480904 222.612989 -42.03079224 222.61172485 C-43.12108734 222.60634201 -44.21138245 222.60095917 -45.3347168 222.59541321 C-46.53668701 222.5995372 -47.73865723 222.60366119 -48.97705078 222.60791016 C-50.91463606 222.60235185 -52.85222133 222.59678922 -54.78980613 222.59106612 C-56.87821761 222.58671881 -58.96658163 222.58719816 -61.05499649 222.58888626 C-65.41985945 222.59172105 -69.78456068 222.57735581 -74.14938354 222.55990601 C-86.56391915 222.51291193 -98.97844586 222.48898193 -111.39306641 222.48242188 C-118.24556172 222.47864805 -125.09787576 222.46042395 -131.95029342 222.42732751 C-135.57039597 222.41055304 -139.19016911 222.40120425 -142.81030655 222.41026688 C-177.65420052 222.49011109 -177.65420052 222.49011109 -193.19921875 214.17578125 C-193.85672119 213.83401855 -194.51422363 213.49225586 -195.19165039 213.14013672 C-211.88394859 204.14492194 -223.81988246 189.92078258 -230.19921875 172.23828125 C-230.45405029 171.53372803 -230.70888184 170.8291748 -230.97143555 170.10327148 C-236.8734347 152.86412157 -234.85061202 132.28333423 -227.45703125 115.8359375 C-217.55237253 97.08607361 -202.0438122 83.59131914 -181.88671875 76.86328125 C-175.10613498 74.87148477 -168.8128725 74.50091822 -161.77734375 74.38476562 C-155.67239825 74.18355761 -151.49861044 72.96730511 -146.63671875 69.05078125 C-143.48116889 65.10634393 -142.88162454 60.85938088 -142.13671875 55.98828125 C-138.20911688 33.61008455 -124.49234277 12.75188814 -106.32421875 -0.69921875 C-73.68697897 -22.34021928 -32.31327026 -23.91794158 0 0 Z " fill="#BDD7FA" transform="translate(310.88671875,221.13671875)"/>
<path d="M0 0 C7.47321477 4.31250028 12.52408112 10.22021883 15.22957134 18.45234489 C16.18077961 22.26218668 16.4276303 25.45081371 16.42451477 29.36795044 C16.42677934 30.04827328 16.42904392 30.72859611 16.43137711 31.42953479 C16.43663911 33.69026262 16.42786992 35.95071192 16.41918945 38.21142578 C16.42030324 39.83979378 16.42236247 41.46816136 16.42529297 43.0965271 C16.43000375 46.5935808 16.42890715 50.09056729 16.42351723 53.58761978 C16.41589479 59.1176155 16.42657613 64.64748227 16.4407196 70.17745972 C16.47842662 85.89907358 16.49663132 101.62062807 16.48510742 117.34228516 C16.4788946 126.03247414 16.49044948 134.72245425 16.52155274 143.41259181 C16.5402193 148.91000557 16.5368781 154.40682819 16.51738513 159.90423226 C16.51050898 163.32217831 16.52444853 166.73980283 16.54433441 170.15768814 C16.54938594 171.74234655 16.54588573 173.3270588 16.53320122 174.9116745 C16.51710884 177.0757908 16.53171789 179.23762827 16.5539093 181.40164185 C16.55407704 182.61208223 16.55424479 183.82252262 16.55441761 185.06964302 C17.35782096 189.16609176 19.0411062 190.60220705 22.1796875 193.2578125 C28.0789094 198.74783982 32.35335855 204.14491888 36.1796875 211.2578125 C36.7571875 212.3096875 37.3346875 213.3615625 37.9296875 214.4453125 C43.31286978 226.55747262 43.03121186 241.91785952 39.1171875 254.4453125 C33.00781998 270.05431627 23.12345702 280.91273456 7.79296875 287.7734375 C-5.79484129 293.16517968 -19.87708879 294.34127948 -33.8203125 289.2578125 C-49.83881792 282.32672842 -61.26310613 271.07261601 -67.7578125 254.8203125 C-72.62509002 238.50061727 -70.63943989 221.96936247 -62.6953125 207.1328125 C-58.68501408 200.52710449 -53.39365817 194.70101143 -47.20348167 190.04052639 C-45.10067996 187.33030562 -45.44992565 185.06909171 -45.45523071 181.67579651 C-45.45211172 181.00383033 -45.44899272 180.33186416 -45.4457792 179.63953537 C-45.43882235 177.38259448 -45.45318118 175.12628501 -45.46728516 172.86938477 C-45.46645451 171.25296403 -45.4642388 169.6365435 -45.46073914 168.02012634 C-45.45578322 164.53498436 -45.45990036 161.05001045 -45.47075272 157.56488228 C-45.48710364 152.04586471 -45.47865079 146.52705832 -45.46591187 141.00804138 C-45.43577923 126.30066241 -45.43719751 111.59332037 -45.45616472 96.88592619 C-45.468526 87.23197332 -45.46655141 77.57825952 -45.43777692 67.92433399 C-45.42259754 62.44723716 -45.42994713 56.97079117 -45.45448709 51.49373543 C-45.4646181 48.07000271 -45.45379901 44.64656268 -45.43737221 41.22286415 C-45.43394441 39.64597812 -45.43891483 38.0690456 -45.45334053 36.49222183 C-45.5565234 24.45917933 -43.89332613 14.60845241 -35.8203125 5.2578125 C-33.63671875 3.52734375 -33.63671875 3.52734375 -31.3828125 2.0703125 C-30.64160156 1.58175781 -29.90039062 1.09320313 -29.13671875 0.58984375 C-20.16669458 -4.56829831 -9.32029183 -4.36984174 0 0 Z " fill="#EAEDEF" transform="translate(404.8203125,150.7421875)"/>
<path d="M0 0 C1.66772461 -0.01160156 1.66772461 -0.01160156 3.36914062 -0.0234375 C12.02621814 -0.00317518 20.40032438 0.63703332 28.5 3.875 C32.10653473 5.21980956 34.39352318 5.77939211 38.1875 5.25 C38.703125 4.734375 39.21875 4.21875 39.75 3.6875 C40.224375 3.213125 40.69875 2.73875 41.1875 2.25 C47.76659203 2.84703504 53.5853463 6.69906264 58.1875 11.25 C58.66638581 14.12331488 58.32115806 16.43073552 57.9609375 19.3125 C58.36290309 24.52419176 62.29813859 27.82511074 65.6953125 31.5078125 C72.1875 38.65125392 72.1875 38.65125392 72.1875 43.25 C70.95515625 43.55292969 69.7228125 43.85585937 68.453125 44.16796875 C40.31128667 51.22906361 14.87162362 65.01564269 -0.8125 90.25 C-1.39515625 91.14976562 -1.9778125 92.04953125 -2.578125 92.9765625 C-9.82370353 104.66399569 -13.94962593 116.95002285 -16.26953125 130.43359375 C-16.8125 133.25 -16.8125 133.25 -17.8125 134.25 C-19.60251373 134.34566582 -21.39311649 134.43486989 -23.18481445 134.49072266 C-31.50574117 134.75585243 -38.80091439 136.01934073 -46.73828125 138.5078125 C-51.10430269 139.56187104 -51.10430269 139.56187104 -53.8125 138.25 C-65.56801537 127.95392786 -72.38476472 114.00314226 -76.8125 99.25 C-77.05871094 98.44691406 -77.30492188 97.64382812 -77.55859375 96.81640625 C-82.47146957 77.26654868 -77.90476812 56.2422627 -67.96289062 39.12255859 C-57.17181933 21.55729611 -40.81393863 7.91854281 -20.8125 2.25 C-19.07226562 1.71439453 -19.07226562 1.71439453 -17.296875 1.16796875 C-11.59388342 -0.22918727 -5.8378249 -0.04019157 0 0 Z " fill="#F4E580" transform="translate(170.8125,146.75)"/>
<path d="M0 0 C6.06747813 3.45013462 10.14816623 8.09030448 12.1875 14.8125 C12.7695141 20.71547041 12.69351393 26.59336781 12.64160156 32.51953125 C12.64047228 34.32364375 12.64110852 36.12775808 12.64337158 37.93186951 C12.64451652 42.81363378 12.62104291 47.69500278 12.59307575 52.57667542 C12.56802532 57.68423443 12.56571722 62.79180309 12.56097412 67.89941406 C12.54855505 77.56425225 12.51574787 87.22890888 12.47557616 96.89366722 C12.43082521 107.89966364 12.40886304 118.90566884 12.38879442 129.91173363 C12.34701434 152.54542297 12.27668302 175.1789513 12.1875 197.8125 C13.12348022 198.25928101 13.12348022 198.25928101 14.07836914 198.71508789 C20.42536824 202.01752579 24.62048982 209.22558832 27.3046875 215.625 C30.07812593 225.6388308 29.10574427 236.64535831 24.1875 245.8125 C18.85502772 254.51575786 10.99873669 260.75180224 1.1875 263.8125 C-1.88556474 264.29033048 -4.89300477 264.3843848 -8 264.375 C-8.83499023 264.37258301 -9.66998047 264.37016602 -10.53027344 264.36767578 C-18.03403885 264.14595386 -23.61995968 262.11863649 -29.8125 257.8125 C-30.50730469 257.33296875 -31.20210938 256.8534375 -31.91796875 256.359375 C-38.73081919 251.07178959 -43.1972609 243.24626753 -44.8125 234.8125 C-45.95576327 223.60600729 -44.65725341 214.23202985 -37.76953125 205.10546875 C-32.72200069 199.26725035 -32.72200069 199.26725035 -29.8125 197.8125 C-29.80885437 196.97169388 -29.80520874 196.13088776 -29.80145264 195.26460266 C-29.76355821 187.33392284 -29.70668923 179.40365365 -29.62859726 171.47326374 C-29.58911754 167.39630353 -29.5569317 163.31955945 -29.54150391 159.24243164 C-29.52634024 155.30642237 -29.49190082 151.37100728 -29.44419098 147.43526268 C-29.42937401 145.93505205 -29.4214588 144.4347566 -29.42061615 142.93447304 C-29.41824548 140.82977872 -29.3911629 138.7267252 -29.35839844 136.62231445 C-29.34951599 135.42540482 -29.34063354 134.22849518 -29.33148193 132.99531555 C-28.71273448 129.20065741 -27.49483329 127.5184356 -24.8125 124.8125 C-21.86756618 123.95332545 -19.95117651 124.4139379 -16.8125 124.8125 C-15.09364319 125.88565063 -15.09364319 125.88565063 -13.8125 127.8125 C-13.50107697 130.33589253 -13.37181292 132.61632048 -13.37670898 135.14208984 C-13.36663315 135.88552139 -13.35655731 136.62895294 -13.34617615 137.39491272 C-13.31766036 139.85457362 -13.31181777 142.31362156 -13.30859375 144.7734375 C-13.29895456 146.48353326 -13.28886222 148.19362652 -13.27833557 149.90371704 C-13.26036478 153.48990615 -13.25481544 157.07587841 -13.2565918 160.66210938 C-13.25689658 165.2548536 -13.21595307 169.84620539 -13.16427517 174.43861961 C-13.13089577 177.97144946 -13.12483469 181.50394343 -13.12642097 185.03691483 C-13.12288297 186.72981183 -13.10962476 188.42271773 -13.08642387 190.11545944 C-13.05697704 192.48600041 -13.06566559 194.85353017 -13.08374023 197.22412109 C-13.06688171 197.92143845 -13.05002319 198.6187558 -13.03265381 199.33720398 C-13.08572738 202.08052782 -13.28886383 204.19824015 -15.10469246 206.32832718 C-16.69398499 207.67349243 -16.69398499 207.67349243 -19.8125 209.8125 C-24.53845029 213.07565616 -27.14003902 216.33252149 -28.8125 221.8125 C-29.70538364 227.96347617 -29.72017698 233.09783521 -26.3125 238.4375 C-25.8484375 239.04851562 -25.384375 239.65953125 -24.90625 240.2890625 C-23.8125 241.8125 -23.8125 241.8125 -23.8125 243.8125 C-23.235 244.10125 -22.6575 244.39 -22.0625 244.6875 C-19.8125 245.8125 -19.8125 245.8125 -18.09375 246.859375 C-12.50509632 249.19436044 -5.08915684 248.61515392 0.70703125 247.1953125 C6.05584721 244.88396946 8.72110126 240.96759094 11.1875 235.8125 C12.98396357 230.42310928 13.08895873 224.32018328 10.9375 219 C7.82398887 213.32896186 4.65416955 210.25887863 -0.8125 206.8125 C-3.26816632 204.35683368 -3.05574946 202.99473478 -3.08751154 199.643116 C-3.08256308 198.55665346 -3.08256308 198.55665346 -3.07751465 197.44824219 C-3.08408655 196.29623384 -3.08408655 196.29623384 -3.09079123 195.12095261 C-3.10316572 192.53370173 -3.10129946 189.94665214 -3.09960938 187.359375 C-3.10563006 185.51012876 -3.1125534 183.66088526 -3.12031555 181.81164551 C-3.13523214 177.82286777 -3.14396061 173.83414033 -3.14802551 169.84533691 C-3.15472129 163.54364988 -3.17645413 157.24207086 -3.20056152 150.94042969 C-3.25376969 136.42575032 -3.28709398 121.91103765 -3.32032013 107.39630127 C-3.35096813 94.09667609 -3.38575226 80.79709706 -3.43663073 67.49753189 C-3.46004157 61.22758064 -3.47373581 54.95770431 -3.48012543 48.68771362 C-3.4860451 44.793645 -3.50012479 40.89963747 -3.51646996 37.00559998 C-3.52236829 35.19393198 -3.52481358 33.38224911 -3.52363014 31.5705719 C-3.52247869 29.10583594 -3.53342495 26.64144682 -3.54748535 24.17675781 C-3.54253689 23.09029528 -3.54253689 23.09029528 -3.53748846 21.981884 C-3.46304211 17.94921577 -3.46304211 17.94921577 -5.8125 14.8125 C-8.3125 14.47916667 -8.3125 14.47916667 -10.8125 14.8125 C-13.33742996 17.33742996 -13.05812352 18.91404223 -13.09147644 22.35876465 C-13.08892349 23.132323 -13.08637054 23.90588135 -13.08374023 24.70288086 C-13.09158035 25.92504051 -13.09158035 25.92504051 -13.09957886 27.17189026 C-13.10983413 28.94414781 -13.11560192 30.7164356 -13.11746025 32.48872185 C-13.12111241 35.29166211 -13.13780675 38.09424486 -13.15821838 40.89710999 C-13.21374466 48.86713017 -13.24434305 56.83720344 -13.26879883 64.80737305 C-13.28465107 69.67919566 -13.31484601 74.55076506 -13.35356331 79.42245674 C-13.36523493 81.28160481 -13.37114385 83.14079813 -13.37124443 84.99998283 C-13.37143593 87.5978332 -13.38966163 90.19498276 -13.41186523 92.79272461 C-13.40499947 93.95002579 -13.40499947 93.95002579 -13.397995 95.13070679 C-13.46819087 100.28215377 -13.46819087 100.28215377 -15.09144592 102.78248596 C-17.53146974 104.242788 -19.98412722 104.27708392 -22.77734375 104.40625 C-26.03018709 103.45724388 -27.0091525 101.62603465 -28.8125 98.8125 C-29.19977957 95.96364272 -29.36058082 93.50480995 -29.33007812 90.66088867 C-29.3370874 89.85370895 -29.34409668 89.04652924 -29.35131836 88.21488953 C-29.36888692 85.55306328 -29.35727672 82.89230538 -29.34375 80.23046875 C-29.34644604 78.37347714 -29.3503294 76.51648691 -29.35534668 74.65950012 C-29.36124084 70.76822464 -29.35268438 66.87731669 -29.33398438 62.98608398 C-29.31124252 58.01282678 -29.32428806 53.04043535 -29.34827423 48.0672102 C-29.3627752 44.23144592 -29.35810575 40.39588452 -29.34776306 36.56011391 C-29.34510516 34.72739877 -29.3483324 32.89466488 -29.35768127 31.06197166 C-29.36791261 28.49158858 -29.35225317 25.92257668 -29.33007812 23.35229492 C-29.33817505 22.60345032 -29.34627197 21.85460571 -29.35461426 21.08306885 C-29.25130377 14.574831 -27.12379287 9.39884115 -22.77734375 4.53515625 C-22.10832031 3.98730469 -21.43929688 3.43945312 -20.75 2.875 C-20.07839844 2.30910156 -19.40679687 1.74320313 -18.71484375 1.16015625 C-13.28883812 -2.68372864 -6.03379571 -1.87937899 0 0 Z " fill="#050505" transform="translate(398.8125,159.1875)"/>
<path d="M0 0 C0.89460938 0.53109375 1.78921875 1.0621875 2.7109375 1.609375 C21.5357515 12.6694109 38.75418546 15.47102434 60.359375 15.34057617 C62.35185737 15.3397279 64.34434068 15.34020894 66.33682251 15.34190369 C71.69529246 15.34275726 77.05355705 15.32523591 82.41197968 15.30418181 C88.03066439 15.28530755 93.64935488 15.28365616 99.26806641 15.28010559 C109.88528549 15.2708165 120.50241086 15.24624554 131.11958885 15.21605712 C143.21645169 15.18241499 155.31331924 15.16600252 167.41021729 15.15097082 C192.27352996 15.11969291 217.1367597 15.06699399 242 15 C242.34077072 15.8280011 242.68154144 16.6560022 243.03263855 17.50909424 C243.48101578 18.59309509 243.92939301 19.67709595 244.39135742 20.79394531 C244.83525314 21.86944641 245.27914886 22.94494751 245.73649597 24.05303955 C249.4968149 32.82349926 255.04065409 39.58529855 262 46 C263.00272933 46.99726321 264.00316175 47.99684821 265 49 C264.44289841 49.00586624 263.88579681 49.01173248 263.31181335 49.01777649 C257.52044539 49.08164414 251.72963656 49.16604596 245.9387207 49.26245117 C243.77668625 49.29573322 241.61456423 49.32375485 239.45239258 49.34643555 C236.34678782 49.37992108 233.24198802 49.432234 230.13671875 49.48828125 C229.16788254 49.49467117 228.19904633 49.5010611 227.20085144 49.50764465 C225.84979057 49.53733589 225.84979057 49.53733589 224.47143555 49.56762695 C223.67867722 49.57873001 222.88591888 49.58983307 222.06913757 49.60127258 C219.44301592 50.10733207 218.58683241 50.86905684 217 53 C216.67 54.32 216.34 55.64 216 57 C209.4 57 202.8 57 196 57 C195.01 54.525 195.01 54.525 194 52 C191.42273927 49.42273927 190.43862835 49.74970775 186.85592651 49.7484436 C185.76563141 49.74306076 184.6753363 49.73767792 183.55200195 49.73213196 C182.35003174 49.73625595 181.14806152 49.74037994 179.90966797 49.74462891 C177.97208269 49.7390706 176.03449742 49.73350797 174.09691262 49.72778487 C172.00850114 49.72343756 169.92013712 49.72391691 167.83172226 49.72560501 C163.4668593 49.7284398 159.10215807 49.71407456 154.73733521 49.69662476 C142.3227996 49.64963068 129.90827289 49.62570068 117.49365234 49.61914062 C110.64115703 49.6153668 103.78884299 49.5971427 96.93642533 49.56404626 C93.31632278 49.54727179 89.69654964 49.537923 86.0764122 49.54698563 C51.23251823 49.62682984 51.23251823 49.62682984 35.6875 41.3125 C35.02999756 40.9707373 34.37249512 40.62897461 33.69506836 40.27685547 C18.97096597 32.3422702 5.61358283 19.00523849 0 3 C0 2.01 0 1.02 0 0 Z " fill="#9CC4F9" transform="translate(82,394)"/>
<path d="M0 0 C6.57978962 0.59923084 12.39700052 4.44822627 17 9 C17.47888581 11.87331488 17.13365806 14.18073552 16.7734375 17.0625 C17.17540309 22.27419176 21.11063859 25.57511074 24.5078125 29.2578125 C31 36.40125392 31 36.40125392 31 41 C29.76765625 41.30292969 28.5353125 41.60585937 27.265625 41.91796875 C-0.87621333 48.97906361 -26.31587638 62.76564269 -42 88 C-42.58265625 88.89976562 -43.1653125 89.79953125 -43.765625 90.7265625 C-51.01120353 102.41399569 -55.13712593 114.70002285 -57.45703125 128.18359375 C-58 131 -58 131 -59 132 C-60.79001373 132.09566582 -62.58061649 132.18486989 -64.37231445 132.24072266 C-72.69324117 132.50585243 -79.98841439 133.76934073 -87.92578125 136.2578125 C-92.3339598 137.32204874 -92.3339598 137.32204874 -95 136 C-97.47265625 133.70703125 -97.47265625 133.70703125 -100.0625 130.8125 C-100.91972656 129.87019531 -101.77695313 128.92789063 -102.66015625 127.95703125 C-104.9341814 125.08317976 -106.49531819 122.33003351 -108 119 C-106.77023438 118.96132813 -106.77023438 118.96132813 -105.515625 118.921875 C-103.89914063 118.83679688 -103.89914063 118.83679688 -102.25 118.75 C-101.18265625 118.70359375 -100.1153125 118.6571875 -99.015625 118.609375 C-95.2221778 117.84282349 -94.18852793 117.20011418 -92 114 C-90.93960886 110.76076482 -90.2909246 107.46434237 -89.625 104.125 C-84.06666412 78.99333533 -69.871627 57.04763035 -48 43 C-40.22966578 38.38151119 -32.3489386 34.35690663 -23.8125 31.375 C-18.36880294 29.41281633 -14.92220014 27.05396909 -12 22 C-10.74566542 18.23699626 -10.89304578 14.72789091 -10.9375 10.8125 C-10.94201172 10.06291016 -10.94652344 9.31332031 -10.95117188 8.54101562 C-10.96293646 6.69397617 -10.98087135 4.84697787 -11 3 C-9.71480469 3.03222656 -8.42960937 3.06445312 -7.10546875 3.09765625 C-3.85648758 3.2894666 -3.85648758 3.2894666 -1.3125 1.4375 C-0.879375 0.963125 -0.44625 0.48875 0 0 Z " fill="#F2DB44" transform="translate(212,149)"/>
<path d="M0 0 C6.12849306 0.3142817 10.45916222 3.08983413 15 7 C21.39139303 14.35978591 24.25264521 21.28069524 24.24482727 31.11013794 C24.24709184 31.79046078 24.24935642 32.47078361 24.25168961 33.17172229 C24.25695161 35.43245012 24.24818242 37.69289942 24.23950195 39.95361328 C24.24061574 41.58198128 24.24267497 43.21034886 24.24560547 44.8387146 C24.25031625 48.3357683 24.24921965 51.83275479 24.24382973 55.32980728 C24.23620729 60.859803 24.24688863 66.38966977 24.2610321 71.91964722 C24.29873912 87.64126108 24.31694382 103.36281557 24.30541992 119.08447266 C24.2992071 127.77466164 24.31076198 136.46464175 24.34186524 145.15477931 C24.3605318 150.65219307 24.3571906 156.14901569 24.33769763 161.64641976 C24.33082148 165.06436581 24.34476103 168.48199033 24.36464691 171.89987564 C24.36969844 173.48453405 24.36619823 175.0692463 24.35351372 176.653862 C24.33742134 178.8179783 24.35203039 180.97981577 24.3742218 183.14382935 C24.37438954 184.35426973 24.37455729 185.56471012 24.37473011 186.81183052 C25.17813346 190.90827926 26.8614187 192.34439455 30 195 C35.8992219 200.49002732 40.17367105 205.88710638 44 213 C44.5775 214.051875 45.155 215.10375 45.75 216.1875 C51.13318228 228.29966012 50.85152436 243.66004702 46.9375 256.1875 C40.82813248 271.79650377 30.94376952 282.65492206 15.61328125 289.515625 C2.06479026 294.8917651 -12.101023 296.13385637 -26 291 C-38.05758056 285.41362916 -38.05758056 285.41362916 -41 281 C-39.99582031 280.97421875 -38.99164063 280.9484375 -37.95703125 280.921875 C-28.66213794 280.57377303 -20.78829819 279.235418 -12 276 C-12 275.34 -12 274.68 -12 274 C-11.07960938 274.00902344 -10.15921875 274.01804687 -9.2109375 274.02734375 C1.86603763 273.7679034 10.58493894 271.39697117 19.2890625 264.07421875 C27.43618804 255.42439823 29.760433 244.90950281 29.46875 233.32421875 C28.97527474 226.4201914 26.03810702 220.55921827 22 215 C21.35884121 214.59473052 20.71768242 214.18946104 20.05709457 213.77191067 C17.41374843 212.07073819 15.81216557 210.58784896 14 208 C12.79419885 202.19005723 12.9703146 196.44463671 13.06347656 190.53344727 C13.06241836 188.74245671 13.05778374 186.95146524 13.04985046 185.16049194 C13.04038946 181.31105844 13.05601451 177.46283966 13.09122467 173.61355782 C13.14664808 167.52390137 13.14533951 161.43505318 13.13641357 155.34519958 C13.12891477 145.71097579 13.15864322 136.07729053 13.20463252 126.4431867 C13.28665589 109.19587559 13.32401863 91.94854962 13.32002425 74.70104641 C13.32033719 68.65079278 13.34291143 62.60115123 13.3835597 56.55103886 C13.4053328 52.7834375 13.4108902 49.0159305 13.41248512 45.24827194 C13.41673068 43.505195 13.42787184 41.76211867 13.4465313 40.01913643 C13.69004219 27.93507048 13.69004219 27.93507048 9 17 C8.505 15.515 8.505 15.515 8 14 C5.71108972 12.62665383 3.54247553 11.84749184 1 11 C0.505 5.555 0.505 5.555 0 0 Z " fill="#D9E4E9" transform="translate(397,149)"/>
<path d="M0 0 C7.7357277 7.47520568 11.60481804 19.10946366 12.21484375 29.74609375 C12.273039 36.27042783 11.88979265 42.54900331 11 49 C10.56169876 54.77760727 10.64700557 59.0283186 14 64 C17.38879875 67.03641066 20.50275583 68.79071051 24.75 70.375 C40.30255134 76.66826955 51.46154562 88.02244084 58.05859375 103.48046875 C59.76680146 108.22912273 60.7132242 112.96093955 61 118 C61.07605469 119.09183594 61.15210938 120.18367188 61.23046875 121.30859375 C61.85237422 137.46132778 56.22674122 150.90315202 45.75 163.1875 C35.59008007 173.95398231 21.28221243 181.56752773 6.2265625 182.09765625 C4.93878906 182.08025391 4.93878906 182.08025391 3.625 182.0625 C2.75101562 182.05347656 1.87703125 182.04445313 0.9765625 182.03515625 C-0.00183594 182.01775391 -0.00183594 182.01775391 -1 182 C-0.154375 181.01 0.69125 180.02 1.5625 179 C2.38814453 178.02546875 2.38814453 178.02546875 3.23046875 177.03125 C4.34547063 175.75133614 5.49077633 174.49663966 6.67578125 173.28125 C21.10068534 158.15997123 24.62089548 139.31731742 24.33984375 119.1484375 C23.73885534 102.88434445 15.90462681 87.91342489 5 76 C3.72519524 75.1685849 3.72519524 75.1685849 2.42463684 74.32037354 C0 72 0 72 -0.60127258 68.7855835 C-0.59016953 67.51539368 -0.57906647 66.24520386 -0.56762695 64.93652344 C-0.56835709 64.23368225 -0.56908722 63.53084106 -0.56983948 62.80670166 C-0.5663638 60.49013312 -0.52750908 58.17559092 -0.48828125 55.859375 C-0.47895292 54.25084532 -0.4718369 52.64230142 -0.46684265 51.03375244 C-0.44777407 46.80505992 -0.39867551 42.57722944 -0.34332275 38.34887695 C-0.29212664 34.03218243 -0.2693279 29.71534827 -0.24414062 25.3984375 C-0.1905557 16.93189656 -0.10524577 8.46605559 0 0 Z " fill="#9AC3F7" transform="translate(436,261)"/>
<path d="M0 0 C1.63343239 1.05649662 1.63343239 1.05649662 3 3 C3.28944344 5.57133696 3.39457195 7.89980334 3.36508179 10.47105408 C3.36820078 11.23850293 3.37131978 12.00595179 3.3745333 12.79665667 C3.38149479 15.37627078 3.36712682 17.95533348 3.35302734 20.53491211 C3.35385785 22.38105884 3.35607313 24.2272054 3.35957336 26.073349 C3.36452934 30.0528733 3.36041253 34.03225041 3.34955978 38.01176262 C3.33323476 44.30148807 3.34164744 50.59102774 3.35440063 56.88075256 C3.38455896 73.63704876 3.38304407 90.39331195 3.36414778 107.14962155 C3.3518271 118.15564612 3.35363879 129.16146113 3.38253558 140.16746145 C3.39780318 146.42282922 3.39023783 152.67762965 3.36582541 158.9329623 C3.3557751 162.82173177 3.36642292 166.71023921 3.38294029 170.59897804 C3.38640043 172.40498169 3.38125884 174.21102495 3.36697197 176.0169754 C3.34869533 178.47931894 3.36097436 180.93967572 3.38095093 183.40196228 C3.36823131 184.11976283 3.35551169 184.83756339 3.34240663 185.57711548 C3.40678614 189.2492232 3.69240827 190.69514432 6.34337807 193.32253361 C7.2200633 193.87609752 8.09674854 194.42966143 9 195 C14.21421438 199.06708722 17.62249183 202.44785244 19 209 C19.94242909 216.67406541 18.50161321 222.66855399 14 229 C7.81648432 234.89937164 1.74288307 235.42975242 -6.48046875 235.328125 C-12.69656593 234.74859985 -15.84655741 232.53864891 -19.8125 227.86328125 C-24.25372884 221.47901479 -25.22275279 215.64220492 -24 208 C-21.88478449 200.89052565 -17.49974937 197.20546045 -11.34605408 193.32754517 C-8.70667004 190.70898423 -8.41060349 189.29711024 -8.35568237 185.63801575 C-8.37051666 184.93553207 -8.38535095 184.2330484 -8.40063477 183.50927734 C-8.39669205 182.76088089 -8.39274933 182.01248444 -8.38868713 181.2414093 C-8.3819839 178.77223379 -8.41111732 176.30491448 -8.44140625 173.8359375 C-8.44565661 172.12009032 -8.44798495 170.40423739 -8.44847107 168.68838501 C-8.45463452 165.0953764 -8.47732783 161.5029917 -8.51293945 157.91015625 C-8.55828022 153.29854161 -8.57296893 148.687491 -8.57667637 144.07567406 C-8.58109857 140.53439748 -8.59638992 136.99323993 -8.6155529 133.45201492 C-8.62444737 131.75111497 -8.6311714 130.05020227 -8.63571358 128.34928513 C-8.64472845 125.97661581 -8.66709256 123.6044636 -8.69360352 121.23193359 C-8.69426819 120.52540146 -8.69493286 119.81886932 -8.69561768 119.09092712 C-8.65576513 115.10035417 -8.65576513 115.10035417 -11 112 C-12.98821313 111.60235737 -14.98944339 111.26224651 -17 111 C-16.01 110.505 -16.01 110.505 -15 110 C-15 103.73 -15 97.46 -15 91 C-15.66 90.67 -16.32 90.34 -17 90 C-15.865625 89.690625 -14.73125 89.38125 -13.5625 89.0625 C-10.21224901 88.37075469 -10.21224901 88.37075469 -9 87 C-8.89086418 84.3994887 -8.8457742 81.82455807 -8.84228516 79.22314453 C-8.83720444 78.40851746 -8.83212372 77.59389038 -8.82688904 76.75457764 C-8.81616178 74.97956556 -8.80755091 73.20453975 -8.80076981 71.42950821 C-8.78901941 68.62251875 -8.76957693 65.81568586 -8.74765015 63.00875854 C-8.68590279 55.02591133 -8.63195442 47.04307897 -8.59863281 39.06005859 C-8.57772298 34.18288486 -8.54244787 29.30599415 -8.49787521 24.42898178 C-8.48368336 22.56704916 -8.47498562 20.70506644 -8.47182083 18.84308243 C-8.46692886 16.24030064 -8.44381553 13.63827373 -8.41650391 11.03564453 C-8.41951004 10.26253937 -8.42251617 9.4894342 -8.4256134 8.69290161 C-8.34437982 3.49749208 -8.34437982 3.49749208 -6.63021851 1.02120972 C-4.27139701 -0.45641517 -2.72578931 -0.4088684 0 0 Z " fill="#D5709D" transform="translate(393,173)"/>
<path d="M0 0 C5.19039543 2.97967145 8.81220493 7.87411478 10.6875 13.5 C11.40220231 20.75247096 10.96274628 26.49095977 6.6875 32.5 C1.59998729 37.80443946 -4.69840373 41.26855458 -11.0625 44.8125 C-12.00738281 45.34939453 -12.95226563 45.88628906 -13.92578125 46.43945312 C-21.9525514 50.96664284 -27.97840353 52.48195578 -37.3125 51.5 C-43.31739327 49.23169392 -47.68862628 45.00074226 -50.390625 39.17578125 C-52.38688254 33.38155916 -52.26569394 26.83201702 -49.8125 21.1875 C-45.1729021 13.53711028 -36.0635402 9.43769089 -28.5 5.1875 C-27.55962891 4.65060547 -26.61925781 4.11371094 -25.65039062 3.56054688 C-17.44575647 -1.09011423 -9.25129541 -4.05413911 0 0 Z " fill="#000000" transform="translate(71.3125,271.5)"/>
<path d="M0 0 C6.42529032 5.15861942 10.21313775 13.79209114 14.26953125 20.84765625 C14.75873047 21.688125 15.24792969 22.52859375 15.75195312 23.39453125 C19.83681958 30.46818659 21.25840944 35.72184696 20.45703125 43.97265625 C18.49245197 50.65222581 14.48475172 54.46632364 8.66796875 58.0859375 C3.04687071 60.34033548 -4.22149925 59.66049907 -9.91796875 57.97265625 C-17.13939171 52.47061971 -21.58615509 44.99580399 -25.91796875 37.16015625 C-26.45035156 36.21978516 -26.98273438 35.27941406 -27.53125 34.31054688 C-32.02715489 26.30829376 -33.52074751 20.26704763 -32.54296875 10.97265625 C-30.18948248 4.74226521 -25.82938403 0.46648138 -19.79296875 -2.27734375 C-12.2868876 -4.00951632 -6.98722402 -3.2328947 0 0 Z " fill="#010100" transform="translate(108.54296875,77.02734375)"/>
<path d="M0 0 C3.4430349 1.75649091 6.81411479 3.62174487 10.16796875 5.54223633 C11.1108374 6.07059082 11.1108374 6.07059082 12.07275391 6.60961914 C20.39383212 11.30310613 26.96538797 15.19564863 30.16796875 24.54223633 C31.07713262 31.6146855 30.46682404 37.72224762 26.16796875 43.54223633 C21.60830275 48.43919269 16.44235879 50.81334722 9.79296875 51.16723633 C2.13854901 51.03574936 -3.61274289 47.54800835 -9.95947266 43.67993164 C-11.78952158 42.56806359 -13.63958619 41.50076434 -15.5 40.44067383 C-23.18210213 35.99286039 -28.8603799 32.21486688 -31.83203125 23.54223633 C-32.61992811 17.41313168 -32.35673549 11.75664049 -29.2421875 6.33129883 C-21.66882702 -3.27700893 -10.79804803 -5.12986061 0 0 Z " fill="#000000" transform="translate(51.83203125,132.457763671875)"/>
<path d="M0 0 C5.37686615 3.1206029 8.69941245 8.78573736 10.625 14.5625 C11.66377772 21.81910438 9.93661027 27.66240173 5.625 33.5625 C2.59276175 36.4532748 -0.75512628 38.47276613 -4.375 40.5625 C-5.09107422 40.9759668 -5.80714844 41.38943359 -6.54492188 41.81542969 C-25.80181268 52.86796726 -25.80181268 52.86796726 -37.375 51.5625 C-43.32214067 49.25451143 -47.16241394 45.19114114 -50.44921875 39.80078125 C-52.64720021 34.48667418 -52.40604074 27.53093823 -50.53515625 22.14453125 C-45.78663487 13.87858663 -36.58257149 9.31411563 -28.5625 4.75 C-27.71751953 4.26080078 -26.87253906 3.77160156 -26.00195312 3.26757812 C-17.86427132 -1.40561008 -9.16176549 -3.89862361 0 0 Z " fill="#010100" transform="translate(314.375,131.4375)"/>
<path d="M0 0 C4.24956311 2.97395254 6.59427278 6.63438083 8.23828125 11.56640625 C9.39619438 21.06422536 7.17130336 26.63111454 2.23828125 34.56640625 C1.51041887 35.90654916 0.79223834 37.25198014 0.08203125 38.6015625 C-8.49169386 54.78238539 -8.49169386 54.78238539 -17.76171875 58.56640625 C-24.96294719 59.47132252 -31.22888028 59.43101113 -37.1796875 54.99609375 C-42.11154599 50.53915497 -45.03263952 45.9880043 -45.38671875 39.31640625 C-45.22880616 30.66279649 -41.04446181 23.84847594 -36.76171875 16.56640625 C-36.37177734 15.90157227 -35.98183594 15.23673828 -35.58007812 14.55175781 C-27.28417374 0.62206761 -27.28417374 0.62206761 -20.01171875 -2.68359375 C-12.40507744 -4.43897251 -6.90999439 -3.77201871 0 0 Z " fill="#010000" transform="translate(260.76171875,77.43359375)"/>
<path d="M0 0 C0.75081345 -0.0066568 1.50162689 -0.0133136 2.27519226 -0.02017212 C3.85946211 -0.03026622 5.4437742 -0.03499015 7.02807617 -0.03466797 C9.43155353 -0.03903044 11.83317646 -0.07535101 14.23632812 -0.11328125 C30.17177045 -0.23139383 30.17177045 -0.23139383 36.63354492 5.71289062 C41.38416695 10.87671999 42.56919801 16.30421 42.38671875 23.1015625 C41.68910017 29.33652855 38.42227296 33.95071923 34.13671875 38.3359375 C29.20389542 41.41484444 25.29979962 41.77940276 19.66796875 41.734375 C18.86943481 41.73724518 18.07090088 41.74011536 17.24816895 41.74307251 C15.56729418 41.74510533 13.88639533 41.73963039 12.20556641 41.72705078 C9.64431464 41.71098515 7.08464065 41.72692528 4.5234375 41.74609375 C2.88411113 41.74411118 1.24478573 41.74026721 -0.39453125 41.734375 C-1.53384094 41.74348404 -1.53384094 41.74348404 -2.69616699 41.7527771 C-8.44292721 41.67739844 -12.62085397 40.4226991 -16.9453125 36.3984375 C-17.51636719 35.7178125 -18.08742188 35.0371875 -18.67578125 34.3359375 C-19.25972656 33.6553125 -19.84367187 32.9746875 -20.4453125 32.2734375 C-24.18516795 27.16333198 -23.37979761 20.35953672 -22.86328125 14.3359375 C-21.20194982 8.90575705 -17.34689331 5.53851755 -12.86328125 2.3359375 C-8.63148806 0.18975008 -4.65720298 0.01450341 0 0 Z " fill="#000000" transform="translate(22.86328125,205.6640625)"/>
<path d="M0 0 C5.47344239 2.50214509 8.99677659 6.11392215 11.72509766 11.51245117 C12.85715256 15.08131806 12.93767484 18.46890519 12.94921875 22.17578125 C12.95587555 22.9265947 12.96253235 23.67740814 12.96939087 24.45097351 C12.97948497 26.03524336 12.9842089 27.61955545 12.98388672 29.20385742 C12.98824919 31.60733478 13.02456976 34.00895771 13.0625 36.41210938 C13.17211434 50.95727908 13.17211434 50.95727908 8.61328125 57.3125 C6.578125 59.37109375 6.578125 59.37109375 4.55078125 60.75 C3.87917969 61.22308594 3.20757812 61.69617188 2.515625 62.18359375 C-2.43286222 65.12017036 -7.81714691 64.85345705 -13.38671875 64.3125 C-20.09491289 62.33950172 -23.71492672 58.34517179 -27.49633789 52.63769531 C-28.81724869 49.18818765 -28.73220865 45.75507404 -28.7578125 42.109375 C-28.76684097 41.31275452 -28.77586945 40.51613403 -28.78517151 39.69537354 C-28.79965874 38.01098374 -28.80855696 36.32653787 -28.81225586 34.64208984 C-28.82411614 32.08462708 -28.87328087 29.52960749 -28.92382812 26.97265625 C-29.07500873 11.74347473 -29.07500873 11.74347473 -23.38671875 5.3125 C-16.57760506 -0.99838586 -9.05298192 -2.60773293 0 0 Z " fill="#000000" transform="translate(180.38671875,54.6875)"/>
<path d="M0 0 C7.7357277 7.47520568 11.60481804 19.10946366 12.21484375 29.74609375 C12.273039 36.27042783 11.88979265 42.54900331 11 49 C10.56169876 54.77760727 10.64700557 59.0283186 14 64 C17.38879875 67.03641066 20.50275583 68.79071051 24.75 70.375 C30.40515752 72.65508189 35.1804792 75.27420809 40 79 C41.17175781 79.82564453 41.17175781 79.82564453 42.3671875 80.66796875 C45.85562736 83.49855403 47.75495707 85.55553642 48.51953125 90.0625 C48.17138612 104.6514388 40.59028964 118.35918393 31 129 C29.36524538 130.37227289 27.70678088 131.71841716 26 133 C25.91363281 131.741875 25.82726562 130.48375 25.73828125 129.1875 C24.15947566 108.96290106 19.07609538 91.37828923 5 76 C3.72519524 75.1685849 3.72519524 75.1685849 2.42463684 74.32037354 C0 72 0 72 -0.60127258 68.7855835 C-0.59016953 67.51539368 -0.57906647 66.24520386 -0.56762695 64.93652344 C-0.56835709 64.23368225 -0.56908722 63.53084106 -0.56983948 62.80670166 C-0.5663638 60.49013312 -0.52750908 58.17559092 -0.48828125 55.859375 C-0.47895292 54.25084532 -0.4718369 52.64230142 -0.46684265 51.03375244 C-0.44777407 46.80505992 -0.39867551 42.57722944 -0.34332275 38.34887695 C-0.29212664 34.03218243 -0.2693279 29.71534827 -0.24414062 25.3984375 C-0.1905557 16.93189656 -0.10524577 8.46605559 0 0 Z " fill="#BBD5F8" transform="translate(436,261)"/>
<path d="M0 0 C2.9375 0.875 2.9375 0.875 4.9375 3.875 C5.40817962 8.33933691 5.30785324 12.82605041 5.3125 17.3125 C5.33699219 18.55322266 5.36148438 19.79394531 5.38671875 21.07226562 C5.39058594 22.26400391 5.39445313 23.45574219 5.3984375 24.68359375 C5.40665527 25.77470459 5.41487305 26.86581543 5.42333984 27.98999023 C4.82632474 31.5351799 3.77841396 32.73408256 0.9375 34.875 C-1.6875 34.8125 -1.6875 34.8125 -4.0625 33.875 C-7.44174189 28.80613716 -6.38978923 22.82618586 -6.375 16.875 C-6.39111328 15.57820313 -6.40722656 14.28140625 -6.42382812 12.9453125 C-6.42447266 11.70523438 -6.42511719 10.46515625 -6.42578125 9.1875 C-6.42876221 8.04925781 -6.43174316 6.91101563 -6.43481445 5.73828125 C-6.0625 2.875 -6.0625 2.875 -4.73120117 0.97265625 C-3.0625 -0.125 -3.0625 -0.125 0 0 Z " fill="#EADC7A" transform="translate(173.0625,69.125)"/>
<path d="M0 0 C1.24007813 -0.00386719 2.48015625 -0.00773438 3.7578125 -0.01171875 C5.70300781 0.00568359 5.70300781 0.00568359 7.6875 0.0234375 C8.98429687 0.01183594 10.28109375 0.00023437 11.6171875 -0.01171875 C12.85726562 -0.00785156 14.09734375 -0.00398437 15.375 0 C16.51324219 0.00338379 17.65148437 0.00676758 18.82421875 0.01025391 C21.6875 0.3984375 21.6875 0.3984375 23.55859375 1.73193359 C25.31589048 4.32607448 25.0751539 6.36181529 24.6875 9.3984375 C19.61863716 12.77767939 13.63868586 11.72572673 7.6875 11.7109375 C6.39070313 11.72705078 5.09390625 11.74316406 3.7578125 11.75976562 C2.51773437 11.76041016 1.27765625 11.76105469 0 11.76171875 C-1.70736328 11.76619019 -1.70736328 11.76619019 -3.44921875 11.77075195 C-6.3125 11.3984375 -6.3125 11.3984375 -8.18359375 10.03198242 C-9.80333437 7.68819252 -9.73006457 6.18220129 -9.3125 3.3984375 C-6.80728628 -0.2217697 -4.19163218 0.01246097 0 0 Z " fill="#ECDE7C" transform="translate(24.3125,220.6015625)"/>
<path d="M0 0 C2.1875 0.9375 2.1875 0.9375 4.1875 3.9375 C4.0183952 6.87626716 3.75581282 8.38893006 1.61328125 10.45703125 C0.91589844 10.88371094 0.21851562 11.31039063 -0.5 11.75 C-1.30308594 12.24371094 -2.10617188 12.73742187 -2.93359375 13.24609375 C-3.88363281 13.80425781 -4.83367188 14.36242187 -5.8125 14.9375 C-6.99112683 15.65715686 -8.16949841 16.37723186 -9.34765625 17.09765625 C-10.58479101 17.83785707 -11.82307161 18.57614619 -13.0625 19.3125 C-13.65248779 19.67061768 -14.24247559 20.02873535 -14.8503418 20.39770508 C-18.29047446 22.39023069 -20.82126678 23.54115627 -24.8125 22.9375 C-26.6875 21.25 -26.6875 21.25 -27.8125 18.9375 C-27.890625 16.609375 -27.890625 16.609375 -26.8125 13.9375 C-24.30413134 11.89510515 -21.52616444 10.41063202 -18.6875 8.875 C-17.56601562 8.24368164 -17.56601562 8.24368164 -16.421875 7.59960938 C-14.93830481 6.76607038 -13.44996422 5.94096041 -11.95678711 5.12475586 C-9.92244708 3.99837586 -7.92989474 2.81702078 -5.93359375 1.625 C-2.8125 -0.0625 -2.8125 -0.0625 0 0 Z " fill="#EBDD7B" transform="translate(62.8125,285.0625)"/>
<path d="M0 0 C2.81133369 0.844315 5.08705457 1.95474562 7.63745117 3.40576172 C9.0209375 4.19273437 9.0209375 4.19273437 10.43237305 4.99560547 C11.38305664 5.54603516 12.33374023 6.09646484 13.31323242 6.66357422 C14.27551758 7.20626953 15.23780273 7.74896484 16.22924805 8.30810547 C17.14770508 8.83533203 18.06616211 9.36255859 19.01245117 9.90576172 C19.84993896 10.3864209 20.68742676 10.86708008 21.55029297 11.36230469 C23.62573242 12.78857422 23.62573242 12.78857422 25.62573242 15.78857422 C25.43823242 18.35107422 25.43823242 18.35107422 24.62573242 20.78857422 C21.62573242 22.78857422 21.62573242 22.78857422 19.25146484 22.57714844 C16.44013115 21.73283344 14.16441027 20.62240282 11.61401367 19.17138672 C10.69168945 18.64673828 9.76936523 18.12208984 8.8190918 17.58154297 C7.8684082 17.03111328 6.91772461 16.48068359 5.93823242 15.91357422 C4.97594727 15.37087891 4.01366211 14.82818359 3.0222168 14.26904297 C2.10375977 13.74181641 1.18530273 13.21458984 0.23901367 12.67138672 C-0.59847412 12.19072754 -1.43596191 11.71006836 -2.29882812 11.21484375 C-4.37426758 9.78857422 -4.37426758 9.78857422 -6.37426758 6.78857422 C-6.18676758 4.22607422 -6.18676758 4.22607422 -5.37426758 1.78857422 C-2.37426758 -0.21142578 -2.37426758 -0.21142578 0 0 Z " fill="#ECDE7C" transform="translate(41.374267578125,145.21142578125)"/>
<path d="M0 0 C2.89306641 0.37768555 2.89306641 0.37768555 4.83056641 1.56518555 C5.89306641 3.37768555 5.89306641 3.37768555 5.62524414 5.67773438 C4.83923744 8.57618322 3.73918226 10.79019823 2.24072266 13.3894043 C1.44698242 14.77289063 1.44698242 14.77289063 0.63720703 16.18432617 C0.08226562 17.13500977 -0.47267578 18.08569336 -1.04443359 19.06518555 C-1.59550781 20.0274707 -2.14658203 20.98975586 -2.71435547 21.98120117 C-6.82102464 29.0917766 -6.82102464 29.0917766 -9.10693359 31.37768555 C-11.95295953 31.74256067 -13.49336419 31.77967929 -15.91943359 30.19018555 C-17.53886777 27.7184176 -17.37795429 26.31042303 -17.10693359 23.37768555 C-15.26737818 19.23623262 -12.83200784 15.43547884 -10.48193359 11.56518555 C-9.86447266 10.49075195 -9.24701172 9.41631836 -8.61083984 8.30932617 C-7.99853516 7.29418945 -7.38623047 6.27905273 -6.75537109 5.2331543 C-6.20026855 4.30140381 -5.64516602 3.36965332 -5.07324219 2.40966797 C-3.10693359 0.37768555 -3.10693359 0.37768555 0 0 Z " fill="#ECDE7C" transform="translate(248.10693359375,89.622314453125)"/>
<path d="M0 0 C2 2 2 2 2.328125 5.1875 C1.82064909 8.04835835 1.09849501 8.91793563 -1.16601562 10.8046875 C-4.13314873 12.67603985 -7.15163361 14.35528072 -10.25 16 C-11.30058594 16.59683594 -12.35117187 17.19367188 -13.43359375 17.80859375 C-21.18986936 22.06520635 -21.18986936 22.06520635 -24.71777344 21.78125 C-27 21 -27 21 -29 19 C-29.4375 16.625 -29.4375 16.625 -29 14 C-24.70256568 9.99774298 -19.5365899 7.15314903 -14.5 4.1875 C-13.65824219 3.67251953 -12.81648438 3.15753906 -11.94921875 2.62695312 C-10.72138672 1.90475586 -10.72138672 1.90475586 -9.46875 1.16796875 C-8.73076172 0.72735107 -7.99277344 0.2867334 -7.23242188 -0.16723633 C-4.39991685 -1.22384992 -2.84842522 -0.92348507 0 0 Z " fill="#EDDF7C" transform="translate(307,146)"/>
<path d="M0 0 C3.1875 0.375 3.1875 0.375 5.0234375 2.3046875 C7.89510503 6.37893061 10.47170475 10.58117218 13 14.875 C13.51498047 15.71675781 14.02996094 16.55851562 14.56054688 17.42578125 C15.04201172 18.24433594 15.52347656 19.06289062 16.01953125 19.90625 C16.46014893 20.64423828 16.9007666 21.38222656 17.35473633 22.14257812 C18.41898081 24.99553958 18.18863806 26.52156348 17.1875 29.375 C14.1875 31.375 14.1875 31.375 11.67578125 31.23046875 C8.67891922 30.20015041 8.01039496 29.36045673 6.375 26.6875 C5.88257812 25.883125 5.39015625 25.07875 4.8828125 24.25 C4.32335937 23.30125 3.76390625 22.3525 3.1875 21.375 C2.45687735 20.20761394 1.72503981 19.04098763 0.9921875 17.875 C0.24289914 16.64698609 -0.50450455 15.41782018 -1.25 14.1875 C-1.61649658 13.60589111 -1.98299316 13.02428223 -2.3605957 12.42504883 C-4.16294376 9.36075231 -4.82665585 7.59660336 -4.59765625 4.01171875 C-3.54375579 0.47250077 -3.54375579 0.47250077 0 0 Z " fill="#EEDF7C" transform="translate(95.8125,89.625)"/>
<path d="M0 0 C9.01988096 9.01988096 13.1466651 22.59674048 13.1875 35.1875 C13.14012339 37.12542878 13.08313443 39.06327566 13 41 C9.65743102 37.7236934 6.61450202 34.27121526 3.5859375 30.70703125 C2.09368296 28.90064276 2.09368296 28.90064276 0 28 C0 18.76 0 9.52 0 0 Z " fill="#EEF1F4" transform="translate(411,329)"/>
</svg>
